<svg width="228" height="228" viewBox="0 0 228 228" fill="none" xmlns="http://www.w3.org/2000/svg">
<circle cx="114" cy="114" r="114" fill="black"/>
<rect x="52.3169" y="52.3169" width="123.866" height="123.866" stroke="#FCFCFC" stroke-width="6.63375"/>
<path d="M95.7625 73.6V104.05H89.977L74.7955 85.5625V104.05H67.8355V73.6H73.6645L88.8025 92.0875V73.6H95.7625ZM116.495 104.572C112.145 104.572 108.752 103.369 106.316 100.962C103.909 98.5545 102.706 95.118 102.706 90.652V73.6H109.753V90.391C109.753 95.843 112.015 98.569 116.539 98.569C118.743 98.569 120.425 97.9165 121.585 96.6115C122.745 95.2775 123.325 93.204 123.325 90.391V73.6H130.285V90.652C130.285 95.118 129.067 98.5545 126.631 100.962C124.224 103.369 120.845 104.572 116.495 104.572ZM90.1945 141.216C91.9345 141.767 93.2975 142.695 94.2835 144C95.2695 145.276 95.7625 146.857 95.7625 148.742C95.7625 151.41 94.7185 153.469 92.6305 154.919C90.5715 156.34 87.5555 157.05 83.5825 157.05H67.8355V126.6H82.7125C86.4245 126.6 89.2665 127.31 91.2385 128.731C93.2395 130.152 94.24 132.081 94.24 134.517C94.24 135.996 93.8775 137.315 93.1525 138.475C92.4565 139.635 91.4705 140.549 90.1945 141.216ZM74.839 131.907V139.084H81.8425C83.5825 139.084 84.902 138.78 85.801 138.171C86.7 137.562 87.1495 136.663 87.1495 135.474C87.1495 134.285 86.7 133.4 85.801 132.82C84.902 132.211 83.5825 131.907 81.8425 131.907H74.839ZM83.0605 151.743C84.9165 151.743 86.3085 151.439 87.2365 150.83C88.1935 150.221 88.672 149.278 88.672 148.002C88.672 145.479 86.8015 144.218 83.0605 144.218H74.839V151.743H83.0605ZM101.098 126.6H108.145V151.308H123.413V157.05H101.098V126.6ZM130.756 157.398C129.567 157.398 128.566 156.992 127.754 156.18C126.942 155.368 126.536 154.353 126.536 153.135C126.536 151.888 126.942 150.888 127.754 150.134C128.566 149.351 129.567 148.959 130.756 148.959C131.945 148.959 132.945 149.351 133.757 150.134C134.569 150.888 134.975 151.888 134.975 153.135C134.975 154.353 134.569 155.368 133.757 156.18C132.945 156.992 131.945 157.398 130.756 157.398Z" fill="#FCFCFC"/>
</svg>
