<?xml version="1.0" standalone="no"?>
<!DOCTYPE svg PUBLIC "-//W3C//DTD SVG 20010904//EN"
 "http://www.w3.org/TR/2001/REC-SVG-20010904/DTD/svg10.dtd">
<svg version="1.0" xmlns="http://www.w3.org/2000/svg"
 width="500.000000pt" height="500.000000pt" viewBox="0 0 500.000000 500.000000"
 preserveAspectRatio="xMidYMid meet">
<metadata>
Created by potrace 1.14, written by Peter Selinger 2001-2017
</metadata>
<g transform="translate(0.000000,500.000000) scale(0.100000,-0.100000)"
fill="#000000" stroke="none">
<path d="M0 2500 l0 -2500 2500 0 2500 0 0 2500 0 2500 -2500 0 -2500 0 0
-2500z m4000 0 l0 -1500 -1500 0 -1500 0 0 1500 0 1500 1500 0 1500 0 0 -1500z"/>
<path d="M1155 3838 c-3 -7 -4 -614 -3 -1348 l3 -1335 1345 0 1345 0 0 1345 0
1345 -1343 3 c-1069 2 -1344 0 -1347 -10z m582 -614 l168 -205 3 205 2 206 85
0 85 0 0 -350 0 -350 -70 0 -69 0 -173 210 -173 211 -3 -211 -2 -210 -80 0
-80 0 0 350 0 350 69 0 70 0 168 -206z m663 -21 c0 -205 2 -231 20 -268 26
-53 64 -75 132 -75 63 0 109 24 135 72 16 29 18 65 21 266 l4 232 80 0 80 0
-4 -247 c-3 -227 -5 -252 -24 -293 -53 -113 -130 -161 -270 -168 -159 -7 -248
38 -306 155 l-33 68 -4 242 -3 243 86 0 86 0 0 -227z m-502 -1008 c90 -27 142
-89 142 -170 0 -43 -31 -107 -64 -132 l-24 -18 36 -20 c45 -26 71 -61 83 -114
19 -86 -23 -163 -111 -205 -41 -19 -65 -21 -287 -24 l-243 -4 0 351 0 351 208
0 c158 0 221 -4 260 -15z m462 -270 l0 -285 175 0 175 0 0 -65 0 -65 -255 0
-255 0 0 350 0 350 80 0 80 0 0 -285z m590 -260 c38 -38 35 -98 -8 -136 -18
-16 -43 -29 -57 -29 -84 0 -134 91 -84 154 41 52 103 56 149 11z"/>
<path d="M1594 2077 c-3 -8 -4 -45 -2 -83 l3 -69 111 0 c86 1 116 4 136 17 54
36 41 113 -22 135 -51 17 -219 17 -226 0z"/>
<path d="M1592 1718 l3 -83 127 0 c113 0 130 2 155 21 36 27 43 80 14 115 -18
23 -25 24 -161 27 l-141 4 3 -84z"/>
</g>
</svg>
