<svg width="350" height="350" viewBox="0 0 350 350" fill="none" xmlns="http://www.w3.org/2000/svg">
<rect x="8.89583" y="8.89583" width="332.208" height="332.208" stroke="#FCFCFC" stroke-width="17.7917"/>
<path d="M125.416 66.3333V148H109.9L69.183 98.4167V148H50.5163V66.3333H66.1497L106.75 115.917V66.3333H125.416ZM181.022 149.4C169.355 149.4 160.255 146.172 153.722 139.717C147.266 133.261 144.038 124.044 144.038 112.067V66.3333H162.938V111.367C162.938 125.989 169.005 133.3 181.138 133.3C187.049 133.3 191.561 131.55 194.672 128.05C197.783 124.472 199.338 118.911 199.338 111.367V66.3333H218.005V112.067C218.005 124.044 214.738 133.261 208.205 139.717C201.749 146.172 192.688 149.4 181.022 149.4ZM110.483 247.533C115.15 249.011 118.805 251.5 121.45 255C124.094 258.422 125.416 262.661 125.416 267.717C125.416 274.872 122.616 280.394 117.016 284.283C111.494 288.094 103.405 290 92.7497 290H50.5163V208.333H90.4163C100.372 208.333 107.994 210.239 113.283 214.05C118.65 217.861 121.333 223.033 121.333 229.567C121.333 233.533 120.361 237.072 118.416 240.183C116.55 243.294 113.905 245.744 110.483 247.533ZM69.2997 222.567V241.817H88.083C92.7497 241.817 96.2886 241 98.6997 239.367C101.111 237.733 102.316 235.322 102.316 232.133C102.316 228.944 101.111 226.572 98.6997 225.017C96.2886 223.383 92.7497 222.567 88.083 222.567H69.2997ZM91.3497 275.767C96.3275 275.767 100.061 274.95 102.55 273.317C105.116 271.683 106.4 269.156 106.4 265.733C106.4 258.967 101.383 255.583 91.3497 255.583H69.2997V275.767H91.3497ZM139.725 208.333H158.625V274.6H199.575V290H139.725V208.333ZM219.267 290.933C216.079 290.933 213.395 289.844 211.217 287.667C209.04 285.489 207.951 282.767 207.951 279.5C207.951 276.156 209.04 273.472 211.217 271.45C213.395 269.35 216.079 268.3 219.267 268.3C222.456 268.3 225.14 269.35 227.317 271.45C229.495 273.472 230.584 276.156 230.584 279.5C230.584 282.767 229.495 285.489 227.317 287.667C225.14 289.844 222.456 290.933 219.267 290.933Z" fill="#FCFCFC"/>
</svg>
